<svg width="1901" height="1032" viewBox="0 0 1901 1032" fill="none" xmlns="http://www.w3.org/2000/svg">
<path d="M1441.98 986.568L1440.22 986.09C1440.32 985.87 1441.58 982.838 1444.08 977.533C1460.48 942.509 1529.18 807.979 1654.77 719.442C1799.45 617.443 1897.62 601.407 1898.61 601.267L1898.96 602.743C1897.99 602.903 1800.24 618.879 1656.01 720.579C1588.16 768.428 1536.95 829.719 1501.68 881.417C1536.93 832.731 1588.04 776.206 1656.71 733.065C1803.83 640.619 1897.72 626.677 1898.66 626.538L1898.98 628.014C1898.04 628.153 1804.55 642.055 1657.87 734.242C1528.63 815.439 1461.82 944.205 1445.84 978.151C1443.31 983.377 1442.08 986.349 1441.98 986.568Z" fill="#00463E"/>
<path d="M1447.97 973.444L1446.19 973.025C1446.71 971.569 1499.92 826.149 1659.68 699.517C1793.2 593.688 1897.47 568.936 1898.51 568.696L1899.03 570.132C1897.99 570.372 1794.15 595.044 1660.99 700.594C1501.58 826.927 1448.49 972.008 1447.97 973.444Z" fill="#00463E"/>
<path d="M1455.16 948.493L1453.42 947.974C1453.72 947.296 1468.11 915.124 1497.89 868.592C1534.2 808.896 1589.97 727.739 1654.7 669.639C1768.85 567.201 1897.1 515.403 1898.36 514.884L1899.18 516.221C1897.89 516.739 1769.97 568.417 1656.06 670.616C1606.71 714.915 1562.57 772.656 1528.31 824.015C1560.24 780.175 1602.73 730.113 1656.56 683.222C1780.79 574.959 1897.32 542.289 1898.49 541.97L1899.08 543.386C1897.92 543.705 1781.83 576.256 1657.94 684.239C1584.89 747.904 1532.72 817.433 1499.6 869.171C1471.88 914.706 1455.53 947.735 1455.16 948.493Z" fill="#00463E"/>
<path d="M1437.05 1029.41L1435.29 1028.91C1435.81 1027.72 1489.17 907.924 1593.98 814.661C1697.14 722.853 1835.54 671.035 1898.56 659.946L1898.96 661.402C1836.18 672.451 1698.23 724.109 1595.37 815.658C1490.8 908.702 1437.57 1028.21 1437.05 1029.41Z" fill="#00463E"/>
<path d="M1500.32 1029.61L1498.85 1028.69C1500.81 1026.68 1697.93 826.528 1898.29 729.994L1899.23 731.27C1699.19 827.665 1502.3 1027.62 1500.32 1029.61Z" fill="#00463E"/>
<path d="M1592 1029.83L1591.18 1028.49C1592.92 1027.79 1766.57 957.268 1898.07 830.237L1899.5 831.195C1767.71 958.465 1593.73 1029.13 1592 1029.83Z" fill="#00463E"/>
<path d="M1450.62 1029.45L1448.91 1028.87C1449.63 1027.5 1523.03 890.013 1631.21 807.221C1767.29 703.087 1897.22 672.212 1898.54 671.912L1899.06 673.349C1897.77 673.648 1768.23 704.443 1632.53 808.298C1524.59 890.871 1451.34 1028.07 1450.62 1029.45Z" fill="#00463E"/>
<path d="M1483.97 1029.59L1482.45 1028.71C1483.25 1027.81 1562.3 938.799 1676.57 850.342C1794.84 758.834 1897.32 716.251 1898.34 715.832L1899.18 717.168C1898.17 717.587 1795.9 760.07 1677.86 851.419C1563.68 939.777 1484.73 1028.69 1483.97 1029.59Z" fill="#00463E"/>
<path d="M1469.77 1029.51L1468.16 1028.77C1468.98 1027.62 1550.28 912.412 1682.64 819.168C1815.03 725.904 1897.67 703.047 1898.49 702.828L1899.08 704.244C1898.26 704.463 1815.95 727.241 1683.88 820.285C1551.72 913.389 1470.56 1028.37 1469.77 1029.51Z" fill="#00463E"/>
<path d="M1456.47 1029.51L1454.83 1028.79C1455.7 1027.48 1543.69 897.174 1645.46 822.16C1747.18 747.146 1896.85 687.011 1898.36 686.413L1899.18 687.749C1897.7 688.348 1748.24 748.403 1646.72 823.257C1545.2 898.131 1457.36 1028.19 1456.47 1029.51Z" fill="#00463E"/>
<path d="M1506.78 1029.69L1505.47 1028.63C1507.65 1026.86 1724.29 850.302 1898.19 739.866L1899.33 741.042C1725.52 851.419 1508.94 1027.91 1506.78 1029.69Z" fill="#00463E"/>
<path d="M1517.88 1029.71L1516.64 1028.61C1518.8 1027.04 1732.83 870.646 1898.14 750.377L1899.38 751.494C1734.1 871.743 1520.03 1028.13 1517.88 1029.71Z" fill="#00463E"/>
<path d="M1528.38 1029.73L1527.22 1028.55C1529.18 1027.28 1726.12 899.846 1898.12 762.843L1899.43 763.9C1727.36 900.983 1530.34 1028.47 1528.38 1029.73Z" fill="#00463E"/>
<path d="M1544.44 1029.77L1543.37 1028.55C1545.06 1027.6 1715.12 931.101 1898.12 780.315L1899.45 781.352C1716.31 932.237 1546.12 1028.81 1544.44 1029.77Z" fill="#00463E"/>
<path d="M1561.75 1029.79L1560.74 1028.53C1562.64 1027.54 1753.07 927.351 1898.07 796.79L1899.45 797.787C1754.29 928.488 1563.66 1028.79 1561.75 1029.79Z" fill="#00463E"/>
<path d="M1577.78 1029.81L1576.89 1028.49C1578.47 1027.79 1737.17 956.91 1898.07 814.641L1899.43 815.658C1738.33 958.106 1579.37 1029.11 1577.78 1029.81Z" fill="#00463E"/>
<path d="M1631.54 1029.85L1630.89 1028.45C1632.55 1027.95 1797.76 977.274 1897.99 857.702L1899.53 858.54C1798.98 978.51 1633.2 1029.35 1631.54 1029.85Z" fill="#00463E"/>
<path d="M1646.97 1029.87L1646.45 1028.43C1647.96 1028.07 1799.64 991.215 1897.99 872.421L1899.55 873.259C1800.78 992.511 1648.48 1029.51 1646.97 1029.87Z" fill="#00463E"/>
<path d="M1671.5 1029.89L1671.07 1028.43C1672.41 1028.17 1807 1001.25 1897.99 889.635L1899.55 890.452C1808.12 1002.58 1672.86 1029.63 1671.5 1029.89Z" fill="#00463E"/>
<path d="M1695.23 1029.89L1694.81 1028.43C1696.12 1028.19 1827.76 1002.88 1897.97 901.641L1899.58 902.379C1828.98 1004.2 1696.54 1029.63 1695.23 1029.89Z" fill="#00463E"/>
<path d="M1721.51 1029.89L1721.14 1028.43C1722.28 1028.23 1836.95 1008.01 1897.94 919.612L1899.58 920.33C1838.14 1009.35 1722.68 1029.69 1721.51 1029.89Z" fill="#00463E"/>
<path d="M1745.37 1029.89L1745 1028.43C1746.01 1028.25 1847.98 1010.2 1897.97 939.038L1899.58 939.776C1849.17 1011.54 1746.41 1029.71 1745.37 1029.89Z" fill="#00463E"/>
<path d="M1772.89 1029.89L1772.57 1028.41C1773.31 1028.31 1848.03 1016.77 1897.99 955.434L1899.55 956.251C1849.12 1018.14 1773.66 1029.77 1772.89 1029.89Z" fill="#00463E"/>
<path d="M1800.51 1029.87L1800.07 1028.41C1800.76 1028.27 1868.79 1014.05 1897.97 974.162L1899.58 974.92C1869.97 1015.37 1801.21 1029.73 1800.51 1029.87Z" fill="#00463E"/>
<path d="M1825.31 1029.87L1824.84 1028.41C1825.26 1028.33 1868.27 1019.16 1898.07 991.993L1899.45 992.99C1869.28 1020.53 1825.73 1029.79 1825.31 1029.87Z" fill="#00463E"/>
<path d="M1849.74 1029.89L1849.34 1028.43C1849.66 1028.37 1881.1 1022.77 1898.02 1003.8L1899.53 1004.68C1882.16 1024.12 1850.06 1029.83 1849.74 1029.89Z" fill="#00463E"/>
<path d="M1455.18 948.393L1453.37 948.034C1453.42 947.835 1454.36 944.843 1456.29 939.398C1468.19 905.391 1516.81 776.107 1610.73 643.611C1719.65 489.913 1896.43 392.261 1898.22 391.304L1899.26 392.541C1897.5 393.498 1721.04 490.97 1612.34 644.349C1552.83 728.298 1511.54 810.951 1486.25 868.852C1512.28 814.92 1555.51 739.208 1621.73 660.265C1746.76 511.254 1896.78 447.729 1898.29 447.111L1899.13 448.447C1897.65 449.065 1748.02 512.431 1623.26 661.123C1516.47 788.413 1469.65 907.206 1458.1 939.717C1456.22 945.162 1455.25 948.194 1455.18 948.393Z" fill="#00463E"/>
<path d="M1455.18 948.393L1453.37 948.074C1489.99 798.605 1468.93 707.675 1444.55 602.384C1429.22 536.186 1413.36 467.734 1409.97 376.964C1405.41 254.74 1441.85 159.182 1473.24 100.523C1507.25 36.9582 1542.83 1.83467 1543.2 1.49561L1544.63 2.45297C1544.29 2.79204 1508.84 37.7958 1474.92 101.182C1443.64 159.681 1407.29 254.999 1411.85 376.924C1415.25 467.575 1431.08 535.967 1446.39 602.105C1460.83 664.434 1474.11 721.756 1474.95 789.151C1475.72 753.429 1474.06 713.22 1468.04 670.138L1467.24 664.434C1455.92 583.496 1440.39 472.661 1453.35 354.186C1468.63 214.151 1521.62 95.4973 1610.83 1.51555L1612.31 2.43303C1406.75 218.998 1447.3 508.662 1469.1 664.274L1469.89 669.979C1491.94 827.765 1455.55 947.197 1455.18 948.393Z" fill="#00463E"/>
<path d="M1455.16 948.453L1453.4 947.955C1453.87 946.838 1499.99 834.487 1482.26 656.216C1475.87 592.033 1469.47 464.005 1498.41 327.679C1527.57 190.456 1584.2 80.6979 1666.76 1.49561L1668.18 2.45297C1457.19 204.897 1473.96 553.957 1484.14 656.117C1495.36 768.907 1481.04 855.389 1468.85 904.075C1483.99 854.651 1505.42 765.097 1510.13 643.95C1514.98 518.615 1530.74 411.309 1558.31 315.912C1596.11 185.071 1656.36 79.2818 1737.37 1.49561L1738.78 2.45297C1597.62 137.961 1523.45 347.824 1511.98 643.99C1504.58 834.806 1455.65 947.336 1455.16 948.453Z" fill="#00463E"/>
<path d="M1455.16 948.453L1453.37 948.034C1453.54 947.456 1462.07 918.974 1479.18 874.616C1494.62 824.574 1513.72 751.016 1526.87 660.584C1541.96 556.829 1563.56 434.885 1609.59 317.228C1658.12 193.169 1727.36 89.8727 1821.27 1.49561L1822.68 2.47292C1610.73 201.965 1559.8 446.872 1528.71 660.764C1517.24 739.647 1501.23 805.706 1487.09 854.531C1504.75 810.632 1529.42 755.224 1561.23 697.184C1603.64 619.856 1650.27 553.04 1699.81 498.59C1761.79 430.477 1828.58 381.611 1898.31 353.349L1899.16 354.685C1741.8 418.47 1629.46 576.456 1562.94 697.762C1526.08 764.997 1498.83 828.682 1480.94 875.015C1466.6 921.647 1455.4 947.915 1455.16 948.453Z" fill="#00463E"/>
<path d="M1447.97 966.983L1446.19 966.584C1446.36 966.045 1448.76 958.985 1453.02 946.818C1472.37 890.333 1528.58 722.554 1567.15 570.652C1600.65 438.754 1637.63 342.878 1687.05 259.786C1738.38 173.523 1805.44 98.5093 1898.12 23.7148L1899.43 24.7719C1721.36 168.457 1634.91 311.364 1568.96 570.931C1541.24 680.071 1504.43 797.389 1478.71 875.773C1516.05 775.549 1580.58 614.033 1645.86 505.271C1746.21 338.091 1896.85 279.452 1898.36 278.874L1899.16 280.23C1897.65 280.808 1747.57 339.248 1647.54 505.93C1562.57 647.501 1478.84 878.606 1454.81 947.217C1450.57 959.563 1448.1 966.604 1447.97 966.983Z" fill="#00463E"/>
<path d="M1447.97 966.962L1446.19 966.563C1447.45 962.813 1574.83 589.659 1666.62 406.901C1758.47 223.964 1896.9 153.278 1898.29 152.58L1899.26 153.856C1897.87 154.555 1759.93 225.021 1668.32 407.459C1576.59 590.137 1449.26 963.212 1447.97 966.962Z" fill="#00463E"/>
<path d="M1393.55 503.835C1393.47 503.635 1391.79 498.27 1389.24 488.676C1373.75 440.788 1341.55 396.709 1307.66 350.297C1273.25 303.166 1237.65 254.42 1214.12 195.682C1165.07 73.278 1176.81 2.57233 1176.93 1.87425L1178.77 2.09365C1178.64 2.79173 1167 73.1783 1215.9 195.223C1239.38 253.822 1274.91 302.488 1309.27 349.539C1339.32 390.686 1368.01 429.998 1385 471.823C1377.47 440.07 1367.29 387.415 1364.51 326.143C1360.35 233.897 1372.64 102.697 1454.83 1.57507L1456.39 2.39283C1374.47 103.196 1362.21 234.056 1366.37 326.083C1369.69 399.841 1383.81 461.092 1391.02 488.317C1392.65 493.344 1394.09 498.39 1395.33 503.516L1393.55 503.835Z" fill="#00463E"/>
<path d="M1393.55 503.835C1393.47 503.636 1391.81 498.41 1389.19 489.115C1370.51 429.898 1343.36 386.777 1314.74 341.322C1290.71 303.146 1265.87 263.695 1246.37 213.613C1202.92 102.159 1212.78 2.91155 1212.88 1.91429L1214.74 2.03396C1214.64 3.01128 1204.83 101.999 1248.13 213.174C1267.6 263.116 1292.4 302.528 1316.4 340.643C1341.1 379.896 1364.73 417.412 1382.77 465.062C1374.4 431.773 1363.22 379.916 1357.4 320.938C1348.11 227.095 1350.76 95.537 1416.14 1.61511L1417.75 2.35308C1352.6 95.9359 1349.97 227.175 1359.24 320.798C1366.77 396.829 1383.14 461.013 1390.97 488.756C1392.48 493.563 1393.94 498.47 1395.35 503.496L1393.55 503.835Z" fill="#00463E"/>
<path d="M1390.65 493.862C1390.5 493.543 1384.01 478.344 1375.41 452.695C1362.31 420.623 1346.2 386.995 1330.47 354.146C1304.74 300.393 1278.1 244.806 1263.66 194.624C1236.68 100.862 1242.53 2.93089 1242.58 1.95358L1244.44 2.03336C1244.39 3.01067 1238.57 100.742 1265.47 194.305C1279.89 244.387 1306.47 299.935 1332.21 353.627C1344.87 380.055 1357.75 406.981 1369.14 433.189C1360.45 404.926 1350.76 368.446 1343.63 327.319C1328.34 239.241 1321.83 111.233 1377.67 1.71423L1379.38 2.29264C1323.71 111.493 1330.2 239.202 1345.46 327.1C1354.36 378.379 1367.19 422.438 1377.17 452.296C1382.92 466.377 1388.1 480.179 1392.41 493.463L1390.65 493.862Z" fill="#00463E"/>
<path d="M1385.1 476.949C1384.7 476.171 1346.4 397.727 1322.5 300.434C1300.42 210.581 1286.5 85.7838 1345.51 1.61511L1347.12 2.35308C1288.41 86.1229 1302.31 210.521 1324.31 300.115C1348.16 397.288 1386.44 475.613 1386.81 476.39L1385.1 476.949Z" fill="#00463E"/>
<path d="M1382.62 469.968C1299.98 296.086 1279.12 178.09 1276.15 109.698C1272.95 35.5217 1289.55 2.01375 1289.72 1.67468L1291.43 2.25309C1291.26 2.57222 1274.79 35.9006 1278.01 109.817C1280.98 178.05 1301.84 295.846 1384.35 469.409L1382.62 469.968Z" fill="#00463E"/>
<path d="M1423 581.501C1318.73 368.646 1147.43 256.614 922.269 153.876C713.856 58.7972 676.994 2.87092 676.647 2.31246L678.307 1.63432C678.654 2.19278 715.442 57.8 923.186 152.58C1013.88 193.966 1119.11 246.122 1212.01 319.242C1268.2 363.46 1315.91 412.366 1356.04 467.075C1321.41 416.833 1273.37 357.596 1212.04 305.679C1143.27 247.459 1062.16 198.553 983.73 151.243C901.46 101.62 823.723 54.7484 769.644 2.47202L771.081 1.51465C825.036 53.6514 902.674 100.463 984.845 150.046C1063.32 197.396 1144.51 246.342 1213.37 304.662C1353.24 423.076 1424.02 579.426 1424.71 581.002L1423 581.501Z" fill="#00463E"/>
<path d="M1423.77 581.601L1421.02 575.657C1362.06 448.367 1222.47 268.561 1043.53 153.817C876.836 46.9103 847.852 2.7517 847.579 2.3129L849.239 1.63477C849.512 2.07356 878.471 46.0328 1044.7 152.64C1124.46 203.799 1203.27 272.63 1272.53 351.693C1333.17 420.903 1384.31 495.857 1417.5 564.049C1411.06 546.338 1393.1 506.328 1344.3 432.132C1290.79 350.775 1211.89 271.992 1135.56 195.801C1066.74 127.11 1001.74 62.2083 962.773 2.33285L964.408 1.63477C1003.28 61.3706 1068.23 126.232 1137 194.884C1213.37 271.134 1292.35 349.958 1345.93 431.454C1416.63 538.978 1422.75 574.959 1422.8 575.318L1423.77 581.601Z" fill="#00463E"/>
<path d="M1416.04 565.146C1388.22 466.159 1304.31 366.393 1230.27 278.375C1191.5 232.261 1154.86 188.721 1134.3 153.558C1076.75 55.128 1063.13 2.65223 1063 2.13365L1064.81 1.83447C1064.94 2.35305 1078.54 54.6693 1135.96 152.919C1156.45 187.983 1193.03 231.483 1231.78 277.537C1305.9 365.675 1389.9 465.56 1417.82 564.827L1416.04 565.146Z" fill="#00463E"/>
<path d="M1422.8 1029.29L1420.97 1029.01C1421.14 1028.27 1438.95 953.32 1443.09 858.52C1446.91 771.06 1439.5 648.338 1382.65 560.34C1267.9 382.748 1077.5 278.394 888.801 192.111C681.676 97.3718 606.813 3.3103 606.07 2.37288L607.631 1.57507C608.349 2.5125 683.014 96.2748 889.718 190.795C1010.29 245.944 1100.91 295.946 1174.85 348.163C1264.98 411.788 1333.47 480.978 1384.31 559.641C1441.33 647.939 1448.76 770.941 1444.95 858.58C1440.84 953.519 1422.98 1028.55 1422.8 1029.29Z" fill="#00463E"/>
<path d="M1373.65 1029.21L1371.8 1029.11C1376.7 973.864 1355.05 901.981 1310.83 826.668C1267.87 753.529 1206.98 684.319 1143.79 636.79C1095.65 600.609 1025.57 562.354 951.377 521.866C825.135 452.975 682.048 374.91 618.432 289.085C519.167 155.134 497.144 3.57005 496.946 2.05421L498.804 1.89465C499.002 3.41049 521.001 154.655 620.067 288.308C683.485 373.853 826.374 451.818 952.442 520.629C1026.71 561.158 1096.84 599.433 1145.08 635.693C1208.44 683.342 1269.46 752.711 1312.51 826.03C1356.88 901.562 1378.58 973.724 1373.65 1029.21Z" fill="#00463E"/>
<path d="M1371.8 1029.21C1354.31 850.503 1220.98 698.022 975.481 576.037C823.748 500.644 692.725 435.523 610.009 327.899L611.594 327.121C694.063 434.466 824.937 499.487 976.447 574.78C1078.68 625.581 1162.64 682.664 1226.01 744.414C1313.88 830.059 1363.55 925.856 1373.63 1029.11L1371.8 1029.21Z" fill="#00463E"/>
<path d="M1379.47 1029.15H1377.62C1378.43 851.878 1317.15 732.127 1166.11 615.827C1101.3 565.944 1023.94 524.598 949.098 484.607C862.146 438.155 772.246 390.107 700.33 327.998C606.095 246.582 557.838 162.293 533.957 105.928C508.069 44.836 504.428 2.43252 504.378 2.01367L506.236 1.91394C506.261 2.33279 509.902 44.5966 535.74 105.509C559.572 161.715 607.705 245.784 701.693 326.981C773.459 388.97 863.261 436.958 950.114 483.371C1025 523.381 1102.47 564.767 1167.37 614.75C1248.38 677.118 1303.99 742.12 1337.41 813.464C1366.49 875.593 1379.87 944.145 1379.47 1029.15Z" fill="#00463E"/>
<path d="M1417.85 1029.25L1416.01 1029.05C1416.16 1028.23 1429.91 946.379 1424.36 842.704C1419.23 747.047 1396.15 612.716 1315.31 515.982C1195.29 372.336 1067.34 308.951 943.599 247.639C905.771 228.891 866.63 209.504 828.182 188.083C665.277 97.2922 600.496 3.27056 599.852 2.33314L601.487 1.61511C602.131 2.55254 666.714 96.275 829.248 186.846C867.645 208.247 906.761 227.614 944.565 246.363C1068.48 307.754 1196.6 371.239 1316.85 515.144C1397.93 612.177 1421.07 746.807 1426.2 842.664C1431.77 946.478 1418 1028.43 1417.85 1029.25Z" fill="#00463E"/>
<path d="M1411.83 1029.27L1409.99 1029.05C1410.09 1028.47 1420.8 969.416 1418.02 889.056C1415.47 814.92 1400.61 706.937 1344.27 613.633C1255.41 466.438 1069.69 353.708 854.045 231.962C640.777 111.553 590.389 3.31041 589.894 2.23337L591.652 1.73474C592.123 2.81178 642.387 110.635 855.135 230.745C954.994 287.13 1059.86 347.525 1147.65 411.668C1240.05 479.163 1304.91 545.002 1345.93 612.975C1402.39 706.518 1417.3 814.741 1419.85 889.036C1422.65 969.515 1411.93 1028.67 1411.83 1029.27Z" fill="#00463E"/>
<path d="M1384.4 1029.25L1382.57 1029.05C1382.65 1028.65 1388.96 987.685 1379.92 925.376C1371.6 867.874 1348.11 779.936 1283.58 687.45C1231.48 612.815 1147.03 566.761 1040.09 508.482C954.548 461.85 857.563 408.995 751.139 328.038C640.331 243.769 581.174 159.64 551.05 103.913C518.399 43.4995 511.859 2.47226 511.81 2.05341L513.643 1.8739C513.693 2.27281 520.208 43.1604 552.784 103.375C582.833 158.962 641.867 242.872 752.427 326.941C858.752 407.798 955.663 460.633 1041.15 507.225C1148.3 565.625 1232.92 611.758 1285.21 686.712C1349.92 779.417 1373.43 867.595 1381.78 925.236C1390.82 987.725 1384.48 1028.85 1384.4 1029.25Z" fill="#00463E"/>
<path d="M1388.47 1029.23L1386.61 1029.09C1409.5 838.914 1331.17 667.445 1166.08 546.278C1093.89 493.284 1023.69 453.872 955.811 415.757C875.251 370.521 791.965 323.75 702.808 253.363C539.754 124.537 521.868 3.27063 521.719 2.05397L523.577 1.89441C523.75 3.09112 541.562 123.879 704.145 252.286C793.178 322.613 876.415 369.345 956.901 414.52C1024.83 452.656 1095.08 492.107 1167.37 545.161C1332.88 666.648 1411.41 838.555 1388.47 1029.23Z" fill="#00463E"/>
<path d="M1404.22 1029.27L1402.39 1029.01C1402.71 1027.48 1434.4 873.818 1365.25 694.57C1304.39 536.744 1205.47 478.006 1008.38 360.987C974.069 340.623 935.201 317.527 893.681 292.176C752.18 205.794 674.096 131.578 633.518 84.527C589.497 33.5072 578.82 2.47245 578.721 2.17327L580.505 1.79431C580.604 2.09349 591.231 32.9487 635.104 83.8089C675.607 130.74 753.542 204.796 894.771 291.02C936.29 316.37 975.159 339.446 1009.47 359.81C1206.88 477.028 1305.97 535.867 1367.04 694.152C1436.3 873.758 1404.54 1027.75 1404.22 1029.27Z" fill="#00463E"/>
<path d="M1393.05 1029.25L1391.22 1029.07C1415.42 868.413 1378.78 732.845 1275.9 602.404C1212.28 521.745 1076.18 446.831 932.104 367.529C872.327 334.619 810.495 300.593 753.716 265.868C655.046 205.514 600.595 137.022 572.28 90.2111C541.611 39.4706 534.18 2.4922 534.105 2.11324L535.939 1.8739C536.013 2.23291 543.42 39.0517 573.989 89.6128C602.206 136.265 656.483 204.517 754.83 264.672C811.585 299.376 873.368 333.403 933.144 366.292C1077.4 445.694 1213.62 520.688 1277.46 601.606C1326.68 664.014 1360.08 725.924 1379.52 790.846C1401.65 864.743 1406.08 942.728 1393.05 1029.25Z" fill="#00463E"/>
<path d="M1397.78 1029.27L1395.95 1029.03C1396.34 1027.1 1434.62 832.731 1335.58 655.498C1253.18 508.083 1065.8 412.187 900.469 327.58C863.731 308.791 829.049 291.02 795.854 272.97C689.48 215.129 627.697 144.582 594.6 95.5971C558.729 42.503 547.854 2.53285 547.755 2.13394L549.564 1.81482C549.663 2.21372 560.488 42.0044 596.26 94.919C629.257 143.745 690.867 214.071 796.894 271.713C830.065 289.744 864.747 307.495 901.46 326.283C1067.02 411.01 1254.64 507.026 1337.26 654.84C1436.58 832.532 1398.18 1027.34 1397.78 1029.27Z" fill="#00463E"/>
<path d="M881.295 317.747C741.304 239.103 662.131 157.527 620.364 102.917C575.079 43.7197 562.743 2.55279 562.619 2.15389L564.427 1.81482C564.551 2.21372 576.838 43.2011 621.999 102.219C663.691 156.689 742.692 238.066 882.36 316.53L881.295 317.747Z" fill="#00463E"/>
<path d="M818.67 543.386C818.397 543.267 810.445 539.896 796.498 531.579C755.623 507.844 662.032 444.797 547.879 311.543C397.137 135.567 385.568 3.33042 385.469 2.01403L387.327 1.91431C387.426 3.23069 398.995 135.088 549.415 310.686C629.257 403.87 698.968 462.648 747.572 497.632C706.449 465.44 650.859 413.144 589.968 331.429C464.965 163.71 447.549 3.62959 447.401 2.03398L449.259 1.91431C449.432 3.50992 466.798 163.251 591.578 330.691C682.048 452.097 760.702 508.382 797.439 530.282C811.461 538.42 819.264 541.93 819.561 542.07L818.67 543.386Z" fill="#00463E"/>
<path d="M818.67 543.387C817.134 542.728 663.716 476.012 467.467 303.665C305.651 161.556 265.718 3.68962 265.321 2.11395L267.154 1.83472C267.526 3.41039 307.385 160.858 468.829 302.648C614.964 430.995 737.291 500.684 790.726 528.109C734.145 495.837 602.354 413.862 497.12 296.605C359.829 143.625 344.718 3.43033 344.594 2.03417L346.452 1.9145C346.576 3.31066 361.662 143.106 498.631 295.727C635.674 448.427 817.778 541.173 819.611 542.09L818.67 543.387Z" fill="#00463E"/>
<path d="M818.695 543.406C818.249 543.227 807.572 539.038 789.116 530.781C709.62 495.957 487.334 392.701 339.862 266.767C158.477 111.832 131.796 3.19099 131.549 2.11395L133.382 1.83472C133.629 2.91176 160.26 111.154 341.225 265.729C456.864 364.498 618.655 449.325 721.263 498.031C646.202 459.437 537.623 395.952 431.546 306.657C242.803 147.774 207.452 3.55 207.105 2.11395L208.939 1.83472C209.261 3.27077 244.537 147.076 432.884 305.62C578.151 427.884 728.026 501.701 789.983 529.445C808.24 537.443 818.967 541.831 819.512 542.05L818.695 543.406Z" fill="#00463E"/>
<path d="M818.769 543.426C815.177 542.309 457.979 429.819 265.619 289.245C73.2088 148.631 3.47354 3.68959 2.77991 2.23359L4.514 1.69507C5.18286 3.13112 74.7942 147.774 266.857 288.128C423.223 402.394 688.737 498.111 784.062 530.382C655.145 481.616 498.556 417.512 315.164 284.039C120.277 142.189 71.3508 3.54997 70.8801 2.17375L72.6638 1.77485C73.1344 3.15107 121.937 141.391 316.403 282.922C516.343 428.442 684.426 491.429 819.487 542.05L818.769 543.426Z" fill="#00463E"/>
<path d="M818.769 543.427C798.257 536.805 776.407 530.004 753.27 522.823C624.724 482.853 464.766 433.09 286.799 338.689C85.3969 231.843 3.59741 76.6295 2.80469 75.0738L4.51401 74.4954C5.30673 76.0511 86.9081 230.866 287.815 337.433C465.609 431.734 625.467 481.457 753.938 521.407C777.076 528.607 798.95 535.409 819.462 542.031L818.769 543.427Z" fill="#00463E"/>
<path d="M818.793 543.426C747.671 522.922 689.356 511.334 632.973 500.145C531.306 479.96 435.262 460.893 281.77 392.56C58.7663 293.273 3.32491 194.724 2.80469 193.747L4.51401 193.148C5.03423 194.126 60.3022 292.236 282.687 391.244C435.956 459.477 531.876 478.524 633.444 498.689C689.876 509.898 748.241 521.486 819.462 542.01L818.793 543.426Z" fill="#00463E"/>
<path d="M818.843 543.446C754.137 527.47 685.145 514.286 618.407 501.561C486.542 476.39 350.193 450.342 231.135 400.559C66.3963 331.648 3.47357 249.015 2.85425 248.197L4.4397 247.419C5.05902 248.237 67.7588 330.531 231.977 399.222C350.812 448.926 487.062 474.934 618.803 500.105C685.566 512.85 754.583 526.034 819.363 542.03L818.843 543.446Z" fill="#00463E"/>
<path d="M818.818 543.446C759.612 528.188 694.013 519.093 618.035 508.542C500.96 492.307 368.252 473.897 218.823 426.507C70.0131 379.297 3.52311 292.855 2.85425 291.977L4.4397 291.199C5.08379 292.057 71.3013 378.1 219.517 425.111C368.772 472.441 501.381 490.831 618.357 507.066C694.385 517.617 760.057 526.712 819.388 542.01L818.818 543.446Z" fill="#00463E"/>
<path d="M806.853 540.454C725.921 524.916 658.39 519.292 586.896 513.348C493.924 505.629 397.806 497.631 265.99 466.417C56.4129 416.794 3.37448 349.239 2.85425 348.561L4.4397 347.783C4.95993 348.461 57.7506 415.557 266.51 464.981C398.177 496.155 494.221 504.134 587.094 511.852C658.663 517.796 726.243 523.421 807.299 538.978L806.853 540.454Z" fill="#00463E"/>
<path d="M802.369 540.454C730.058 527.35 675.037 526.114 605.377 524.538C533.709 522.923 444.502 520.908 305.75 504.394C184.661 489.973 108.807 462.489 66.4954 441.965C20.5668 419.686 3.07722 400.519 2.90381 400.319L4.41494 399.442C5.08381 400.2 75.0915 475.413 306.023 502.918C444.676 519.412 533.808 521.427 605.451 523.042C675.211 524.618 730.305 525.854 802.79 538.998L802.369 540.454Z" fill="#00463E"/>
<path d="M802.468 540.474C699.934 531.897 614.988 534.091 532.867 536.226C445.865 538.479 363.694 540.594 266.114 530.282C99.2696 512.63 4.04329 456.884 3.10193 456.325L4.2167 455.128C5.15807 455.687 100.038 511.194 266.386 528.786C363.818 539.098 445.914 536.964 532.842 534.73C615.038 532.596 700.033 530.421 802.691 538.998L802.468 540.474Z" fill="#00463E"/>
<path d="M298.541 568.796C277.98 568.796 257.691 567.878 237.65 565.724C81.3342 548.931 3.89466 504.712 3.12671 504.273L4.21671 503.057C4.98466 503.495 82.0774 547.495 237.898 564.248C314.223 572.446 394.313 562.693 479.135 552.361C569.976 541.292 663.914 529.843 763.08 538.998L762.857 540.494C663.939 531.359 570.125 542.787 479.407 553.857C416.683 561.456 356.534 568.796 298.541 568.796Z" fill="#00463E"/>
<path d="M263.488 589.32C99.6165 589.32 4.1424 540.853 3.15149 540.355L4.16717 539.098C5.18285 539.617 107.593 591.574 282.34 587.625C385.296 585.311 432.76 574.999 483.024 564.089C519.613 556.151 557.466 547.934 619.15 541.99L619.373 543.466C557.813 549.39 520.034 557.587 483.495 565.526C433.132 576.455 385.543 586.787 282.365 589.121C275.974 589.26 269.681 589.32 263.488 589.32Z" fill="#00463E"/>
<path d="M245.528 602.763C86.6108 602.763 4.06811 571.788 3.25061 571.469L4.04334 570.112C4.88561 570.431 89.6827 602.244 253.009 601.247L253.034 602.743C250.507 602.763 248.005 602.763 245.528 602.763Z" fill="#00463E"/>
<path d="M520.307 898.271C402.215 898.271 330.523 880.839 329.606 880.599L330.102 879.163C331.39 879.423 460.258 904.753 629.827 879.163C678.605 871.804 734.492 856.286 793.624 839.871C944.614 797.966 1115.74 750.477 1260.14 809.116L1259.3 810.452C1115.6 752.093 944.862 799.482 794.219 841.287C735.012 857.722 679.075 873.24 630.149 880.619C515.402 897.932 419.209 891.988 368.425 886.224C418.739 893.803 515.848 903.177 643.081 890.672C700.058 885.067 759.314 870.148 822.064 854.352C895.762 835.803 971.939 816.615 1050.99 811.07C1140.67 804.768 1220.41 817.593 1294.75 850.223L1293.86 851.539C1128.28 778.819 965.894 819.707 822.633 855.788C759.81 871.604 700.479 886.543 643.328 892.168C598.316 896.576 557.045 898.271 520.307 898.271Z" fill="#00463E"/>
<path d="M1346.45 936.905C1220.58 864.564 1048.44 886.683 896.555 906.189C831.675 914.526 770.363 922.405 715.888 922.903C711.998 922.943 708.109 922.963 704.244 922.963C525.831 922.963 355.989 885.905 354.28 885.526L354.726 884.07C356.361 884.369 521.347 913.609 688.142 904.255C736.845 901.522 792.757 890.353 851.964 878.525C1000.95 848.767 1169.8 815.04 1322.15 889.415L1321.18 890.692C1169.48 816.635 1001.02 850.303 852.41 879.981C793.129 891.829 737.118 903.018 688.266 905.751C568.069 912.492 448.813 899.228 390.746 891.131C451.909 902.28 582.487 922.624 715.863 921.407C770.214 920.909 831.452 913.05 896.258 904.713C1048.51 885.147 1221.05 862.988 1347.54 935.688L1346.45 936.905Z" fill="#00463E"/>
<path d="M1361.99 976.815C1219.15 904.853 1066.22 921.567 943.326 935.01C895.738 940.215 850.775 945.142 812.055 944.364C674.418 941.652 518.796 911.754 517.235 911.435L517.681 909.979C519.242 910.278 674.666 940.156 812.105 942.848C850.676 943.606 895.564 938.7 943.078 933.494C1066.25 920.011 1219.54 903.257 1362.98 975.498L1361.99 976.815Z" fill="#00463E"/>
<path d="M1371.25 1020.77C1226.03 949.51 1116.74 956.85 1011.05 963.93C969.635 966.703 930.494 969.336 889.222 967.521C742.147 961.058 657.201 935.509 656.359 935.249L657.028 933.853C657.87 934.112 742.568 959.582 889.346 966.045C930.494 967.86 969.56 965.227 1010.93 962.454C1116.91 955.334 1226.5 947.994 1372.24 1019.52L1371.25 1020.77Z" fill="#00463E"/>
<path d="M1293.79 1029.79C1227.25 995.703 1086.21 989.081 957.025 987.086C832.84 985.172 729.463 953.538 728.447 953.219L729.116 951.823C730.132 952.142 833.236 983.676 957.075 985.59C1086.51 987.585 1227.87 994.247 1294.8 1028.53L1293.79 1029.79Z" fill="#00463E"/>
<path d="M1204.8 1029.85C1146.69 1011.7 1050.44 1006.35 948.528 1000.71L935.572 999.991C829.372 994.067 763.129 964.628 762.485 964.329L763.402 963.033C764.046 963.332 829.941 992.591 935.721 998.495L948.677 999.213C1050.72 1004.88 1147.11 1010.24 1205.5 1028.45L1204.8 1029.85Z" fill="#00463E"/>
<path d="M1125.63 1029.87C1078.93 1019.88 1029.73 1015.97 982.17 1012.18C930.221 1008.05 876.514 1003.76 826.151 991.555L826.696 990.119C876.885 1002.29 930.518 1006.55 982.368 1010.68C1030.01 1014.47 1079.28 1018.4 1126.12 1028.41L1125.63 1029.87Z" fill="#00463E"/>
<path d="M1050.52 1029.89C993.416 1022.03 951.105 1018.24 920.238 1015.47C891.873 1012.94 871.386 1011.1 855.284 1007.63L855.754 1006.19C871.708 1009.64 892.145 1011.46 920.436 1013.99C951.352 1016.77 993.664 1020.55 1050.84 1028.41L1050.52 1029.89Z" fill="#00463E"/>
<path d="M967.009 1029.89C916.745 1022.01 873.541 1018.82 873.12 1018.78L873.294 1017.28C873.715 1017.32 916.993 1020.52 967.356 1028.41L967.009 1029.89Z" fill="#00463E"/>
<path d="M514.015 891.231C470.811 891.231 420.547 889.356 359.928 885.267L360.077 883.771C608.3 900.545 683.138 880.021 807.15 845.995C836.927 837.837 870.692 828.563 910.056 819.009C1043.16 786.718 1135.86 790.986 1190.19 800.241C1249.15 810.293 1276.99 828.264 1277.26 828.443L1276.1 829.6C1275.83 829.42 1248.25 811.629 1189.67 801.677C1135.59 792.482 1043.26 788.274 910.626 820.445C871.262 829.999 837.546 839.233 807.77 847.411C713.807 873.18 648.01 891.231 514.015 891.231Z" fill="#00463E"/>
<path d="M442.62 890.093C411.555 890.093 379.647 888.258 346.65 884.15L346.923 882.674C519.762 904.195 663.964 863.028 803.41 823.197C857.736 807.68 909.065 793.02 962.104 781.831C1152.26 741.661 1244.64 793.08 1245.55 793.618L1244.46 794.835C1243.55 794.317 1151.81 743.317 962.574 783.287C909.61 794.476 858.331 809.116 804.029 824.633C690.941 856.905 574.733 890.093 442.62 890.093Z" fill="#00463E"/>
<path d="M537.796 903.497C489.812 903.497 441.802 899.947 393.47 891.53L393.867 890.074C564.576 919.792 731.395 888.518 908 855.389C936.39 850.064 965.745 844.559 995.101 839.313C1206.09 801.657 1306.49 865.92 1307.04 866.658L1306.25 867.037L1305.55 867.536C1304.71 866.857 1204.93 803.412 995.522 840.789C966.191 846.035 936.835 851.54 908.446 856.845C781.56 880.66 659.703 903.497 537.796 903.497Z" fill="#00463E"/>
<path d="M1334.74 913.808C1334.41 913.608 1303.1 893.065 1242.43 878.286C1186.42 864.663 1093.25 853.294 967.405 876.61C791.246 909.24 647.639 929.664 402.958 894.9L403.281 893.424C647.614 928.148 791.048 907.764 966.984 875.154C1093.28 851.758 1186.84 863.167 1243.08 876.869C1304.07 891.729 1335.6 912.432 1335.92 912.631L1334.74 913.808Z" fill="#00463E"/>
<path d="M1358.12 956.511C1357.2 956.093 1266.04 915.065 1144.36 905.751C1085.37 901.243 1010.36 908.483 930.915 916.162C808.86 927.95 670.529 941.313 548.449 916.821L548.895 915.365C670.653 939.797 808.81 926.434 930.692 914.666C1010.24 906.988 1085.37 899.728 1144.53 904.255C1266.63 913.609 1358.15 954.796 1359.04 955.215L1358.12 956.511Z" fill="#00463E"/>
<path d="M1368.85 1004.76C1368.1 1004.18 1292.15 947.216 1144.41 944.205C1095.03 943.187 1042.44 946.618 986.753 950.248C875.672 957.488 760.825 964.968 670.925 935.229L671.643 933.853C761.123 963.452 875.746 955.992 986.604 948.772C1042.34 945.142 1094.98 941.711 1144.46 942.729C1292.97 945.76 1369.37 1003.12 1370.14 1003.7L1368.85 1004.76Z" fill="#00463E"/>
<path d="M1346.5 1029.79C1345.68 1029.39 1264.7 989.919 1159.39 978.072C1122.38 973.923 1081.68 974.601 1034.56 975.399C949.024 976.855 842.575 978.67 717.027 948.912L717.547 947.476C842.848 977.154 949.123 975.359 1034.54 973.903C1081.73 973.106 1122.51 972.407 1159.67 976.576C1265.37 988.463 1346.68 1028.09 1347.49 1028.49L1346.5 1029.79Z" fill="#00463E"/>
<path d="M1244.41 1029.73C1243.99 1029.45 1201.26 1001.11 1037.41 997.179C880.007 993.39 809.206 979.428 740.115 956.571L740.834 955.195C798.158 974.163 863.979 991.535 1037.46 995.703C1202.2 999.653 1245.21 1028.33 1245.63 1028.63L1244.41 1029.73Z" fill="#00463E"/>
<path d="M1225.17 778.999C1223.53 777.583 1059.81 636.89 855.333 602.723C725.227 580.983 601.239 601.367 481.339 621.073C411.604 632.541 345.709 643.372 283.604 644.708C272.481 644.947 261.704 645.067 251.325 645.067C79.2781 645.067 4.01856 614.292 3.22583 613.953L4.09288 612.636C4.91038 612.975 89.1872 647.421 283.579 643.232C345.511 641.896 411.332 631.085 480.993 619.637C601.066 599.891 725.252 579.487 855.73 601.287C996.563 624.823 1118.1 698.72 1180.95 743.158C1160.83 727.919 1134.55 709.171 1103.51 689.684C1035.08 646.762 928.983 591.415 811.931 571.549C702.263 552.92 601.116 572.666 494.048 593.569C424.536 607.131 352.645 621.173 277.485 624.045C71.4995 631.943 3.91947 603.003 3.2506 602.703L4.14242 601.387C4.78651 601.686 72.094 630.407 277.386 622.549C352.397 619.677 424.189 605.655 493.602 592.113C600.893 571.17 702.213 551.404 812.303 570.093C929.701 590.038 1036.1 645.506 1104.67 688.528C1178.96 735.14 1226.11 777.583 1226.58 778.022L1225.17 778.999Z" fill="#00463E"/>
<path d="M1225.29 779.079C1224.72 778.739 1168.09 743.776 1083.14 709.929C1004.79 678.694 885.68 642.015 762.981 644.728C650.066 647.201 576.591 661.522 505.542 675.364C430.184 690.043 359.012 703.905 252.984 698.201C62.4821 687.949 3.64692 652.147 3.07715 651.788L4.21669 650.612C4.78647 650.971 63.3244 686.493 253.084 696.705C358.814 702.389 429.862 688.547 505.072 673.908C572.899 660.704 649.794 645.725 762.906 643.232C885.952 640.579 1005.43 677.298 1083.99 708.612C1138.29 730.253 1181.07 752.352 1205.05 765.616C1154.54 733.245 1015.22 651.748 855.333 625.022C735.978 605.057 616.376 626.618 500.736 647.44C421.34 661.741 346.378 675.224 278.599 673.409C115.57 668.941 4.3901 631.325 3.27533 630.946L3.99374 629.569C5.08374 629.948 115.991 667.465 278.649 671.893C346.155 673.748 421.043 660.245 500.315 645.964C616.153 625.102 735.953 603.521 855.705 623.546C1056.44 657.114 1224.79 776.745 1226.48 777.942L1225.29 779.079Z" fill="#00463E"/>
<path d="M1225.41 779.139C1224.82 778.88 1165.93 753.888 1077.74 732.826C996.389 713.4 872.724 693.434 745.739 708.772C672.709 717.588 613.725 725.805 561.702 733.066C434.791 750.757 358.194 761.428 252.984 755.723C106.578 747.745 4.1176 688.289 3.10191 687.69L4.19191 686.474C5.2076 687.072 107.246 746.269 253.084 754.207C358.07 759.912 434.593 749.241 561.355 731.57C613.403 724.31 672.387 716.092 745.442 707.276C872.773 691.919 996.736 711.904 1078.29 731.39C1140.81 746.329 1188.63 763.243 1211.49 771.939C1189.39 760.889 1142.3 738.77 1081.11 718.007C1002.14 691.201 882.831 661.283 763.03 670.797C672.411 677.997 607.16 690.562 544.089 702.729C458.945 719.144 385.419 733.285 272.406 729.077C78.6092 721.816 3.77078 671.136 3.05237 670.617L4.26623 669.48C4.98464 669.979 79.4267 720.34 272.481 727.561C385.196 731.769 458.648 717.628 543.643 701.253C603.841 689.645 672.089 676.501 762.832 669.281C883.029 659.727 1002.66 689.745 1081.86 716.631C1167.64 745.731 1225.78 777.523 1226.35 777.842L1225.41 779.139Z" fill="#00463E"/>
<path d="M376.625 812.767C228.558 812.767 103.605 780.017 3.05237 714.596L4.21669 713.44C174.95 824.554 416.583 841.109 722.378 762.664C861.576 726.962 989.502 732.308 1072.32 743.078C1112.77 748.344 1146.71 755.384 1171.83 761.527C1148.15 754.806 1116.59 746.848 1079.38 739.907C1001.62 725.367 882.558 712.303 756.911 732.607C728.844 737.134 699.86 742.201 671.817 747.087C562.619 766.115 449.754 785.761 337.781 785.761C336.766 785.761 335.75 785.761 334.734 785.761C206.882 785.342 98.4026 758.336 3.10191 703.148L4.19191 701.931C216.519 824.853 447.772 784.564 671.421 745.611C699.463 740.725 728.472 735.678 756.54 731.131C882.534 710.767 1001.89 723.871 1079.85 738.451C1164.3 754.247 1219.72 775.13 1220.26 775.349L1219.49 776.706C1218.92 776.506 1161.5 756.182 1071.97 744.534C989.354 733.804 861.749 728.458 722.948 764.08C596.409 796.551 480.794 812.767 376.625 812.767Z" fill="#00463E"/>
<path d="M392.133 850.522C357.104 850.522 322.497 847.57 288.31 840.789C101.97 803.89 3.99372 731.908 3.02759 731.19L4.291 730.093C5.25713 730.811 102.911 802.534 288.756 839.353C436.476 868.612 592.371 826.388 757.431 781.691C780.643 775.408 804.648 768.906 828.43 762.683C1014.97 713.818 1206.11 770.063 1208.02 770.641L1207.38 772.038C1205.47 771.459 1014.92 715.393 829 764.099C805.243 770.322 781.238 776.825 758.026 783.107C630.818 817.553 509.06 850.522 392.133 850.522Z" fill="#00463E"/>
<path d="M414.676 867.795C413.289 867.795 411.901 867.795 410.514 867.775C279.615 867.077 150.153 832.193 3.15149 757.957L4.1424 756.7C321.778 917.099 530.142 874.416 789.859 796.59C931.856 754.047 1024.78 745.451 1077.84 745.71C1135.41 746.009 1159 756.241 1159.96 756.68L1159.07 757.996C1158.82 757.897 1134.79 747.465 1077.57 747.206C1076.85 747.206 1076.13 747.206 1075.41 747.206C1022.25 747.206 930.172 756.142 790.503 798.006C646.821 841.048 533.486 867.795 414.676 867.795Z" fill="#00463E"/>
<path d="M840.445 1029.77C704.616 957.089 528.482 930.821 386.93 909.719C310.358 898.311 244.215 888.438 194.075 873.519C45.711 829.38 3.39916 795.074 2.97803 794.735L4.31575 793.698C4.71212 794.037 46.8753 828.144 194.719 872.123C244.71 887.002 310.779 896.855 387.277 908.243C528.977 929.365 705.334 955.653 841.485 1028.51L840.445 1029.77Z" fill="#00463E"/>
<path d="M773.558 1029.77C674.938 975.398 512.9 946.578 369.961 921.147C313.43 911.095 260.02 901.601 213.967 891.17C52.0529 854.57 3.39927 807.679 2.92859 807.201L4.36541 806.263C4.83609 806.722 53.2172 853.274 214.463 889.734C260.466 900.145 313.851 909.639 370.358 919.691C513.47 945.142 675.681 974.002 774.599 1028.53L773.558 1029.77Z" fill="#00463E"/>
<path d="M705.409 1029.77C627.375 984.075 484.015 958.944 357.525 936.745C286.031 924.199 218.526 912.372 171.779 898.27C44.1999 859.816 3.32495 820.604 2.92859 820.205L4.36541 819.268C4.76177 819.647 45.4138 858.579 172.424 896.874C219.046 910.916 286.502 922.763 357.922 935.269C484.585 957.488 628.167 982.659 706.499 1028.53L705.409 1029.77Z" fill="#00463E"/>
<path d="M634.881 1029.79C545.352 986.269 410.861 961.098 302.778 940.894C251.126 931.22 206.511 922.883 173.068 913.928C68.824 886.024 3.69646 841.088 3.05237 840.629L4.26623 839.492C4.91032 839.931 69.7653 884.708 173.637 912.492C207.006 921.407 251.572 929.764 303.174 939.418C411.381 959.662 546.046 984.853 635.822 1028.49L634.881 1029.79Z" fill="#00463E"/>
<path d="M504.7 1029.73C453.123 994.287 357.179 970.392 205.297 935.269C47.0488 898.65 3.34973 855.249 2.92859 854.83L4.39018 853.913C4.81132 854.351 48.2627 897.393 205.817 933.833C357.947 969.016 454.065 992.97 505.914 1028.59L504.7 1029.73Z" fill="#00463E"/>
<path d="M415.593 1029.73C379.424 1006.13 323.661 990.716 253.059 971.17C223.059 962.873 189.071 953.459 153.175 942.449C35.3561 906.248 3.17629 867.834 2.85425 867.455L4.41493 866.637C4.7122 867.016 36.669 905.052 153.844 941.053C189.69 952.062 223.678 961.477 253.653 969.754C324.429 989.34 380.341 1004.8 416.757 1028.55L415.593 1029.73Z" fill="#00463E"/>
<path d="M346.18 1029.71C345.857 1029.49 313.009 1006.63 225.115 987.047C154.017 971.191 57.7754 941.193 2.92859 888.259L4.36541 887.301C58.8902 939.936 154.785 969.814 225.611 985.611C313.975 1005.32 347.071 1028.35 347.393 1028.59L346.18 1029.71Z" fill="#00463E"/>
<path d="M295.495 1029.71C295.272 1029.57 273.298 1014.57 186.693 993.21C99.2697 971.649 35.7029 940.515 2.87903 903.177L4.39016 902.32C36.9663 939.378 100.186 970.313 187.213 991.774C274.339 1013.25 295.817 1027.95 296.684 1028.57L295.495 1029.71Z" fill="#00463E"/>
<path d="M221.102 1029.75C220.829 1029.59 193.604 1013.71 132.168 997.119C61.7886 978.092 36.4213 957.887 2.87903 916.88L4.43971 916.062C37.7343 956.77 62.9281 976.835 132.787 995.703C194.546 1012.4 221.944 1028.39 222.217 1028.55L221.102 1029.75Z" fill="#00463E"/>
<path d="M183.918 1029.73C183.547 1029.49 146.412 1005.54 102.54 997.139C67.7588 990.477 13.8285 967.241 2.77991 936.485L4.56354 936.067C15.2901 965.925 69.6167 989.28 102.986 995.683C147.279 1004.16 184.736 1028.33 185.107 1028.57L183.918 1029.73Z" fill="#00463E"/>
<path d="M149.261 1029.71C127.04 1014.09 101.425 1007.45 76.677 1001.01C48.0397 993.589 21.0127 986.568 2.90381 966.384L4.41494 965.526C22.177 985.312 48.9315 992.252 77.2715 999.612C102.218 1006.09 127.981 1012.78 150.5 1028.61L149.261 1029.71Z" fill="#00463E"/>
<path d="M112.077 1029.75C92.036 1017.3 71.1031 1013.21 52.6474 1009.6C31.3429 1005.46 12.9367 1001.85 2.82947 986.688L4.46447 985.97C14.2001 1000.55 32.2099 1004.08 53.0933 1008.15C71.7224 1011.78 92.8535 1015.91 113.217 1028.55L112.077 1029.75Z" fill="#00463E"/>
<path d="M64.9843 1029.71C55.8431 1023.27 45.2652 1021.57 35.0093 1019.94C23.0193 1018.02 11.6734 1016.19 2.92859 1007.37L4.39018 1006.43C12.7138 1014.83 23.7129 1016.59 35.3809 1018.46C45.8597 1020.14 56.7102 1021.87 66.1981 1028.57L64.9843 1029.71Z" fill="#00463E"/>
<path d="M1897.87 641.576C1714.72 686.532 1599.51 777.642 1535.1 846.134C1497.69 885.925 1472.62 922.903 1457.36 948.772C1470.51 916.74 1496.85 860.335 1541.12 795.633C1604.29 703.286 1717.89 574.82 1900.37 487.22L1897.2 482.932C1713.53 571.11 1599.23 700.354 1535.72 793.239C1496.45 850.641 1471.21 901.601 1456.69 934.97C1477.82 832.611 1472.15 753.03 1456.49 682.823C1454.56 673.768 1452.38 664.792 1449.9 655.857C1441.18 622.887 1430.66 591.713 1420.2 560.818C1418.07 554.515 1415.96 548.253 1413.86 542.01C1413.86 541.99 1413.86 541.99 1413.86 541.97C1390.99 473.658 1371.32 407.22 1376.72 325.206C1384.65 205.295 1418.24 124.278 1445.02 77.4065C1474.03 26.6659 1501.53 3.94835 1501.8 3.72895L1497.39 0.218601C1496.25 1.15603 1469.03 23.5744 1439.57 75.0131C1412.47 122.303 1378.51 204.058 1370.53 324.946C1366.52 385.859 1376.18 438.135 1390.72 488.896C1359.41 425.231 1321.78 375.966 1285.12 328.018C1218.13 240.418 1154.89 157.686 1147.53 1.894L1141.33 2.0735C1148.77 159.162 1212.43 242.453 1279.84 330.611C1325.87 390.825 1373.48 453.094 1407.91 543.406C1409.99 549.629 1412.1 555.852 1414.21 562.094C1414.9 564.169 1415.62 566.263 1416.31 568.357C1391.37 518.235 1357.35 470.606 1314.42 425.929C1235.64 343.934 1126.45 271.353 989.849 210.202C762.312 108.341 622.792 1.25575 621.404 0.178711L617.119 3.76884C618.506 4.84588 758.546 112.35 986.876 214.57C1239.19 327.519 1392.26 474.695 1442.67 652.486C1445.64 663.496 1448.42 674.705 1450.92 686.174C1451.51 689.006 1452.08 691.858 1452.6 694.71L1452.7 694.69C1468.28 771.06 1471.33 859.058 1440.89 975.319C1440.84 975.439 1440.81 975.518 1440.81 975.538H1440.84C1436.38 992.571 1431.2 1010.18 1425.23 1028.47L1431.22 1029.73C1436.03 1015.03 1440.29 1000.77 1444.13 986.887C1445.52 983.596 1472.47 920.928 1540.2 848.946C1604.04 781.093 1718.24 690.861 1899.7 646.303L1897.87 641.576Z" fill="#00463E"/>
<path d="M1896.21 842.005C1895.29 843.062 1803.16 949.031 1610.16 1026.92L1612.93 1031.36C1807.32 952.92 1900.37 845.894 1901.29 844.817L1896.21 842.005Z" fill="#00463E"/>
<path d="M1039.27 633.877C968.792 592.81 899.85 565.465 830.214 543.525C827.092 541.87 761.94 506.966 688.291 424.832C618.878 347.404 527.714 211.099 487.706 1.59473L481.587 2.35264C521.768 212.854 613.452 349.878 683.262 427.764C735.508 486.023 783.715 520.848 808.835 536.964C765.507 523.979 721.833 512.73 677.267 501.281C556.995 470.347 432.636 438.374 288.905 366.532C154.562 299.376 84.9758 239.401 50.2444 200.907C12.6889 159.241 6.76826 133.113 6.69394 132.854L0.599854 133.692C0.822808 134.789 6.66917 160.897 44.8687 203.38C79.8973 242.333 150.103 302.986 285.684 370.74C430.06 442.902 554.815 474.994 675.434 506.009C716.011 516.44 755.871 526.712 795.358 538.26C684.525 525.236 581.545 544.682 473.115 565.166C341.894 589.958 193.183 618.041 4.16713 592.212L3.12667 597.118C56.7844 604.458 107.197 607.47 154.884 607.47C276.246 607.47 379.92 587.884 474.527 570.013C593.139 547.594 705.186 526.452 827.662 548.053C897.001 569.893 965.597 597.078 1035.65 637.886C1111.9 682.304 1173.02 728.537 1221.08 774.132C1079.28 726.862 953.21 765.077 807.869 809.135C732.634 831.933 654.848 855.528 566.632 870.128C470.836 885.984 380.539 884.748 300.424 874.197C299.26 873.957 298.096 873.718 296.931 873.459L296.857 873.698C164.323 855.688 60.0544 812.267 5.5544 778.839L1.78894 782.808C21.3099 794.795 94.3646 836.002 214.463 863.506C241.688 869.729 268.963 874.715 296.262 878.485C363.917 892.945 429.465 902 492.883 910.756C638.027 930.801 775.094 949.749 887.24 1031.01L891.377 1027.3C777.918 945.082 639.984 926.014 493.949 905.85C448.416 899.567 401.745 893.105 354.057 884.608C376.377 886.264 398.698 887.101 420.993 887.101C470.167 887.101 519.217 883.072 567.895 875.014C656.582 860.335 734.591 836.68 810.073 813.803C958.016 768.946 1085.82 730.232 1229.95 782.628C1324.33 875.074 1365.23 964.189 1369.69 1029.27L1375.88 1028.99C1368.95 928.787 1276.94 772.337 1039.27 633.877Z" fill="#00463E"/>
</svg>
